<svg width="102" height="32" viewBox="0 0 102 32" fill="none" xmlns="http://www.w3.org/2000/svg">
<rect y="0.859375" width="102" height="31.0303" rx="15.5151" fill="#E2FFF5"/>
<path d="M23.881 20.8594V11.0594H27.325C27.8477 11.0594 28.319 11.1877 28.739 11.4444C29.1637 11.701 29.4997 12.0487 29.747 12.4874C29.999 12.9214 30.125 13.4067 30.125 13.9434C30.125 14.4147 30.0317 14.844 29.845 15.2314C29.6583 15.6187 29.4017 15.943 29.075 16.2044C28.753 16.461 28.3867 16.6384 27.976 16.7364L30.356 20.8594H28.998L26.66 16.8344H25.057V20.8594H23.881ZM25.057 15.6584H27.206C27.5233 15.6584 27.815 15.5814 28.081 15.4274C28.347 15.2687 28.557 15.0564 28.711 14.7904C28.8697 14.5197 28.949 14.2164 28.949 13.8804C28.949 13.5397 28.8697 13.2364 28.711 12.9704C28.557 12.6997 28.347 12.4874 28.081 12.3334C27.815 12.1747 27.5233 12.0954 27.206 12.0954H25.057V15.6584ZM34.5899 21.0414C33.9459 21.0414 33.3579 20.8757 32.8259 20.5444C32.2986 20.213 31.8763 19.7697 31.5589 19.2144C31.2463 18.6544 31.0899 18.036 31.0899 17.3594C31.0899 16.846 31.1809 16.3677 31.3629 15.9244C31.5449 15.4764 31.7946 15.0844 32.1119 14.7484C32.4339 14.4077 32.8073 14.1417 33.2319 13.9504C33.6566 13.759 34.1093 13.6634 34.5899 13.6634C35.1173 13.6634 35.6003 13.7707 36.0389 13.9854C36.4823 14.1954 36.8603 14.4894 37.1729 14.8674C37.4903 15.2454 37.7259 15.684 37.8799 16.1834C38.0386 16.6827 38.0969 17.217 38.0549 17.7864H32.3429C32.3989 18.183 32.5296 18.5377 32.7349 18.8504C32.9403 19.1584 33.2016 19.4034 33.5189 19.5854C33.8409 19.7674 34.1979 19.8607 34.5899 19.8654C35.0099 19.8654 35.3903 19.758 35.7309 19.5434C36.0716 19.324 36.3469 19.0254 36.5569 18.6474L37.7539 18.9274C37.4739 19.548 37.0516 20.0567 36.4869 20.4534C35.9223 20.8454 35.2899 21.0414 34.5899 21.0414ZM32.3079 16.8624H36.8719C36.8346 16.4704 36.7086 16.1134 36.4939 15.7914C36.2793 15.4647 36.0063 15.2034 35.6749 15.0074C35.3436 14.8114 34.9819 14.7134 34.5899 14.7134C34.1979 14.7134 33.8386 14.809 33.5119 15.0004C33.1853 15.1917 32.9146 15.4507 32.6999 15.7774C32.4899 16.0994 32.3593 16.461 32.3079 16.8624ZM44.0165 19.0114L45.0665 19.5784C44.7492 20.0217 44.3455 20.3764 43.8555 20.6424C43.3702 20.9084 42.8428 21.0414 42.2735 21.0414C41.6295 21.0414 41.0415 20.8757 40.5095 20.5444C39.9822 20.213 39.5598 19.7697 39.2425 19.2144C38.9298 18.6544 38.7735 18.036 38.7735 17.3594C38.7735 16.846 38.8645 16.3677 39.0465 15.9244C39.2285 15.4764 39.4782 15.0844 39.7955 14.7484C40.1175 14.4077 40.4908 14.1417 40.9155 13.9504C41.3402 13.759 41.7928 13.6634 42.2735 13.6634C42.8428 13.6634 43.3702 13.7964 43.8555 14.0624C44.3455 14.3284 44.7492 14.6854 45.0665 15.1334L44.0165 15.7004C43.7925 15.425 43.5265 15.2127 43.2185 15.0634C42.9105 14.914 42.5955 14.8394 42.2735 14.8394C41.8395 14.8394 41.4452 14.956 41.0905 15.1894C40.7405 15.418 40.4628 15.7237 40.2575 16.1064C40.0522 16.489 39.9495 16.9067 39.9495 17.3594C39.9495 17.812 40.0522 18.2297 40.2575 18.6124C40.4675 18.9904 40.7475 19.2937 41.0975 19.5224C41.4522 19.751 41.8442 19.8654 42.2735 19.8654C42.6188 19.8654 42.9432 19.786 43.2465 19.6274C43.5498 19.4687 43.8065 19.2634 44.0165 19.0114ZM49.2872 21.0414C48.6432 21.0414 48.0552 20.8757 47.5232 20.5444C46.9959 20.213 46.5735 19.7697 46.2562 19.2144C45.9435 18.6544 45.7872 18.036 45.7872 17.3594C45.7872 16.846 45.8782 16.3677 46.0602 15.9244C46.2422 15.4764 46.4919 15.0844 46.8092 14.7484C47.1312 14.4077 47.5045 14.1417 47.9292 13.9504C48.3539 13.759 48.8065 13.6634 49.2872 13.6634C49.8145 13.6634 50.2975 13.7707 50.7362 13.9854C51.1795 14.1954 51.5575 14.4894 51.8702 14.8674C52.1875 15.2454 52.4232 15.684 52.5772 16.1834C52.7359 16.6827 52.7942 17.217 52.7522 17.7864H47.0402C47.0962 18.183 47.2269 18.5377 47.4322 18.8504C47.6375 19.1584 47.8989 19.4034 48.2162 19.5854C48.5382 19.7674 48.8952 19.8607 49.2872 19.8654C49.7072 19.8654 50.0875 19.758 50.4282 19.5434C50.7689 19.324 51.0442 19.0254 51.2542 18.6474L52.4512 18.9274C52.1712 19.548 51.7489 20.0567 51.1842 20.4534C50.6195 20.8454 49.9872 21.0414 49.2872 21.0414ZM47.0052 16.8624H51.5692C51.5319 16.4704 51.4059 16.1134 51.1912 15.7914C50.9765 15.4647 50.7035 15.2034 50.3722 15.0074C50.0409 14.8114 49.6792 14.7134 49.2872 14.7134C48.8952 14.7134 48.5359 14.809 48.2092 15.0004C47.8825 15.1917 47.6119 15.4507 47.3972 15.7774C47.1872 16.0994 47.0565 16.461 47.0052 16.8624ZM53.8361 13.8594H55.0121V20.8594H53.8361V13.8594ZM54.4381 12.7184C54.2514 12.7184 54.0951 12.6577 53.9691 12.5364C53.8431 12.415 53.7801 12.2634 53.7801 12.0814C53.7801 11.8994 53.8431 11.7477 53.9691 11.6264C54.0951 11.505 54.2491 11.4444 54.4311 11.4444C54.6131 11.4444 54.7671 11.505 54.8931 11.6264C55.0191 11.7477 55.0821 11.8994 55.0821 12.0814C55.0821 12.2634 55.0191 12.415 54.8931 12.5364C54.7718 12.6577 54.6201 12.7184 54.4381 12.7184ZM60.2105 20.8594H58.7055L56.1505 13.8454H57.4035L59.4545 19.4944L61.5055 13.8454H62.7585L60.2105 20.8594ZM66.7052 21.0414C66.0612 21.0414 65.4732 20.8757 64.9412 20.5444C64.4138 20.213 63.9915 19.7697 63.6742 19.2144C63.3615 18.6544 63.2052 18.036 63.2052 17.3594C63.2052 16.846 63.2962 16.3677 63.4782 15.9244C63.6602 15.4764 63.9098 15.0844 64.2272 14.7484C64.5492 14.4077 64.9225 14.1417 65.3472 13.9504C65.7718 13.759 66.2245 13.6634 66.7052 13.6634C67.2325 13.6634 67.7155 13.7707 68.1542 13.9854C68.5975 14.1954 68.9755 14.4894 69.2882 14.8674C69.6055 15.2454 69.8412 15.684 69.9952 16.1834C70.1538 16.6827 70.2122 17.217 70.1702 17.7864H64.4582C64.5142 18.183 64.6448 18.5377 64.8502 18.8504C65.0555 19.1584 65.3168 19.4034 65.6342 19.5854C65.9562 19.7674 66.3132 19.8607 66.7052 19.8654C67.1252 19.8654 67.5055 19.758 67.8462 19.5434C68.1868 19.324 68.4622 19.0254 68.6722 18.6474L69.8692 18.9274C69.5892 19.548 69.1668 20.0567 68.6022 20.4534C68.0375 20.8454 67.4052 21.0414 66.7052 21.0414ZM64.4232 16.8624H68.9872C68.9498 16.4704 68.8238 16.1134 68.6092 15.7914C68.3945 15.4647 68.1215 15.2034 67.7902 15.0074C67.4588 14.8114 67.0972 14.7134 66.7052 14.7134C66.3132 14.7134 65.9538 14.809 65.6272 15.0004C65.3005 15.1917 65.0298 15.4507 64.8152 15.7774C64.6052 16.0994 64.4745 16.461 64.4232 16.8624ZM76.9438 10.3594H78.1198V20.8594H76.9438V19.6694C76.7058 20.08 76.3861 20.4114 75.9848 20.6634C75.5834 20.9154 75.1121 21.0414 74.5708 21.0414C74.0621 21.0414 73.5861 20.9457 73.1428 20.7544C72.6994 20.563 72.3074 20.2994 71.9668 19.9634C71.6308 19.6227 71.3671 19.2307 71.1758 18.7874C70.9844 18.344 70.8888 17.868 70.8888 17.3594C70.8888 16.8507 70.9844 16.3747 71.1758 15.9314C71.3671 15.4834 71.6308 15.0914 71.9668 14.7554C72.3074 14.4147 72.6994 14.1487 73.1428 13.9574C73.5861 13.766 74.0621 13.6704 74.5708 13.6704C75.1121 13.6704 75.5834 13.7964 75.9848 14.0484C76.3861 14.3004 76.7058 14.6317 76.9438 15.0424V10.3594ZM74.5847 19.9004C75.0468 19.9004 75.4458 19.7884 75.7818 19.5644C76.1224 19.3357 76.3838 19.0277 76.5658 18.6404C76.7524 18.253 76.8458 17.826 76.8458 17.3594C76.8458 16.8834 76.7524 16.454 76.5658 16.0714C76.3791 15.684 76.1154 15.3784 75.7748 15.1544C75.4388 14.9257 75.0421 14.8114 74.5847 14.8114C74.1228 14.8114 73.7028 14.9257 73.3248 15.1544C72.9514 15.383 72.6528 15.691 72.4288 16.0784C72.2048 16.461 72.0928 16.888 72.0928 17.3594C72.0928 17.8307 72.2071 18.26 72.4358 18.6474C72.6644 19.03 72.9678 19.3357 73.3458 19.5644C73.7238 19.7884 74.1368 19.9004 74.5847 19.9004Z" fill="#34C759"/>
</svg>
