<svg width="101" height="32" viewBox="0 0 101 32" fill="none" xmlns="http://www.w3.org/2000/svg">
<rect y="0.924805" width="101" height="31.0303" rx="15.5151" fill="#FDF7DF"/>
<path d="M27.6181 21.1068C27.0908 21.1068 26.5821 21.0251 26.0921 20.8618C25.6021 20.6938 25.1728 20.4558 24.8041 20.1478C24.4401 19.8398 24.1811 19.4735 24.0271 19.0488L25.1261 18.6358C25.2195 18.8971 25.3921 19.1258 25.6441 19.3218C25.9008 19.5131 26.2018 19.6625 26.5471 19.7698C26.8925 19.8771 27.2495 19.9308 27.6181 19.9308C28.0381 19.9308 28.4278 19.8631 28.7871 19.7278C29.1511 19.5878 29.4451 19.3941 29.6691 19.1468C29.8931 18.8995 30.0051 18.6101 30.0051 18.2788C30.0051 17.9381 29.8885 17.6605 29.6551 17.4458C29.4218 17.2265 29.1231 17.0538 28.7591 16.9278C28.3951 16.7971 28.0148 16.6968 27.6181 16.6268C26.9415 16.5148 26.3348 16.3561 25.7981 16.1508C25.2661 15.9408 24.8438 15.6491 24.5311 15.2758C24.2231 14.9025 24.0691 14.4101 24.0691 13.7988C24.0691 13.2295 24.2325 12.7325 24.5591 12.3078C24.8905 11.8831 25.3268 11.5541 25.8681 11.3208C26.4095 11.0875 26.9928 10.9708 27.6181 10.9708C28.1361 10.9708 28.6378 11.0525 29.1231 11.2158C29.6131 11.3745 30.0448 11.6078 30.4181 11.9158C30.7915 12.2238 31.0598 12.5995 31.2231 13.0428L30.1101 13.4488C30.0168 13.1828 29.8418 12.9541 29.5851 12.7628C29.3331 12.5668 29.0345 12.4175 28.6891 12.3148C28.3485 12.2075 27.9915 12.1538 27.6181 12.1538C27.2028 12.1491 26.8155 12.2168 26.4561 12.3568C26.0968 12.4968 25.8051 12.6905 25.5811 12.9378C25.3571 13.1851 25.2451 13.4721 25.2451 13.7988C25.2451 14.1908 25.3478 14.4918 25.5531 14.7018C25.7631 14.9071 26.0478 15.0611 26.4071 15.1638C26.7665 15.2665 27.1701 15.3575 27.6181 15.4368C28.2528 15.5441 28.8408 15.7145 29.3821 15.9478C29.9235 16.1765 30.3575 16.4821 30.6841 16.8648C31.0155 17.2475 31.1811 17.7188 31.1811 18.2788C31.1811 18.8481 31.0155 19.3451 30.6841 19.7698C30.3575 20.1945 29.9235 20.5235 29.3821 20.7568C28.8408 20.9901 28.2528 21.1068 27.6181 21.1068ZM39.0368 16.5708V20.9248H37.8608V16.8298C37.8608 16.4751 37.7745 16.1531 37.6018 15.8638C37.4291 15.5745 37.1981 15.3458 36.9088 15.1778C36.6195 15.0051 36.2975 14.9188 35.9428 14.9188C35.5928 14.9188 35.2708 15.0051 34.9768 15.1778C34.6875 15.3458 34.4565 15.5745 34.2838 15.8638C34.1111 16.1531 34.0248 16.4751 34.0248 16.8298V20.9248H32.8488V10.4248H34.0248V14.7998C34.2721 14.4731 34.5848 14.2141 34.9628 14.0228C35.3408 13.8268 35.7515 13.7288 36.1948 13.7288C36.7175 13.7288 37.1935 13.8571 37.6228 14.1138C38.0568 14.3658 38.3998 14.7065 38.6518 15.1358C38.9085 15.5651 39.0368 16.0435 39.0368 16.5708ZM40.4367 13.9248H41.6127V20.9248H40.4367V13.9248ZM41.0387 12.7838C40.852 12.7838 40.6957 12.7231 40.5697 12.6018C40.4437 12.4805 40.3807 12.3288 40.3807 12.1468C40.3807 11.9648 40.4437 11.8131 40.5697 11.6918C40.6957 11.5705 40.8497 11.5098 41.0317 11.5098C41.2137 11.5098 41.3677 11.5705 41.4937 11.6918C41.6197 11.8131 41.6827 11.9648 41.6827 12.1468C41.6827 12.3288 41.6197 12.4805 41.4937 12.6018C41.3723 12.7231 41.2207 12.7838 41.0387 12.7838ZM44.4017 24.4248H43.2257V13.9248H44.4017V15.1218C44.6397 14.7111 44.9571 14.3798 45.3537 14.1278C45.7504 13.8711 46.2217 13.7428 46.7677 13.7428C47.2764 13.7428 47.7524 13.8385 48.1957 14.0298C48.6437 14.2211 49.0357 14.4871 49.3717 14.8278C49.7077 15.1638 49.9714 15.5535 50.1627 15.9968C50.3541 16.4401 50.4497 16.9161 50.4497 17.4248C50.4497 17.9335 50.3541 18.4118 50.1627 18.8598C49.9714 19.3078 49.7077 19.7021 49.3717 20.0428C49.0357 20.3788 48.6437 20.6425 48.1957 20.8338C47.7524 21.0251 47.2764 21.1208 46.7677 21.1208C46.2217 21.1208 45.7504 20.9948 45.3537 20.7428C44.9571 20.4861 44.6397 20.1525 44.4017 19.7418V24.4248ZM46.7537 14.8838C46.3011 14.8838 45.9044 14.9981 45.5637 15.2268C45.2231 15.4555 44.9594 15.7611 44.7727 16.1438C44.5907 16.5265 44.4997 16.9535 44.4997 17.4248C44.4997 17.8915 44.5907 18.3185 44.7727 18.7058C44.9594 19.0931 45.2207 19.4011 45.5567 19.6298C45.8974 19.8585 46.2964 19.9728 46.7537 19.9728C47.2064 19.9728 47.6217 19.8608 47.9997 19.6368C48.3777 19.4081 48.6811 19.1025 48.9097 18.7198C49.1384 18.3325 49.2527 17.9008 49.2527 17.4248C49.2527 16.9581 49.1407 16.5335 48.9167 16.1508C48.6927 15.7635 48.3917 15.4555 48.0137 15.2268C47.6357 14.9981 47.2157 14.8838 46.7537 14.8838ZM52.7963 24.4248H51.6203V13.9248H52.7963V15.1218C53.0343 14.7111 53.3516 14.3798 53.7483 14.1278C54.1449 13.8711 54.6163 13.7428 55.1623 13.7428C55.6709 13.7428 56.1469 13.8385 56.5903 14.0298C57.0383 14.2211 57.4303 14.4871 57.7663 14.8278C58.1023 15.1638 58.3659 15.5535 58.5573 15.9968C58.7486 16.4401 58.8443 16.9161 58.8443 17.4248C58.8443 17.9335 58.7486 18.4118 58.5573 18.8598C58.3659 19.3078 58.1023 19.7021 57.7663 20.0428C57.4303 20.3788 57.0383 20.6425 56.5903 20.8338C56.1469 21.0251 55.6709 21.1208 55.1623 21.1208C54.6163 21.1208 54.1449 20.9948 53.7483 20.7428C53.3516 20.4861 53.0343 20.1525 52.7963 19.7418V24.4248ZM55.1483 14.8838C54.6956 14.8838 54.2989 14.9981 53.9583 15.2268C53.6176 15.4555 53.3539 15.7611 53.1673 16.1438C52.9853 16.5265 52.8943 16.9535 52.8943 17.4248C52.8943 17.8915 52.9853 18.3185 53.1673 18.7058C53.3539 19.0931 53.6153 19.4011 53.9513 19.6298C54.2919 19.8585 54.6909 19.9728 55.1483 19.9728C55.6009 19.9728 56.0163 19.8608 56.3943 19.6368C56.7723 19.4081 57.0756 19.1025 57.3043 18.7198C57.5329 18.3325 57.6473 17.9008 57.6473 17.4248C57.6473 16.9581 57.5353 16.5335 57.3113 16.1508C57.0873 15.7635 56.7863 15.4555 56.4083 15.2268C56.0303 14.9981 55.6103 14.8838 55.1483 14.8838ZM59.9191 13.9248H61.0951V20.9248H59.9191V13.9248ZM60.5211 12.7838C60.3344 12.7838 60.1781 12.7231 60.0521 12.6018C59.9261 12.4805 59.8631 12.3288 59.8631 12.1468C59.8631 11.9648 59.9261 11.8131 60.0521 11.6918C60.1781 11.5705 60.3321 11.5098 60.5141 11.5098C60.6961 11.5098 60.8501 11.5705 60.9761 11.6918C61.1021 11.8131 61.1651 11.9648 61.1651 12.1468C61.1651 12.3288 61.1021 12.4805 60.9761 12.6018C60.8548 12.7231 60.7031 12.7838 60.5211 12.7838ZM68.9235 16.5708V20.9248H67.7475V16.8298C67.7475 16.4751 67.6612 16.1531 67.4885 15.8638C67.3158 15.5745 67.0848 15.3458 66.7955 15.1778C66.5062 15.0051 66.1842 14.9188 65.8295 14.9188C65.4795 14.9188 65.1575 15.0051 64.8635 15.1778C64.5742 15.3458 64.3432 15.5745 64.1705 15.8638C63.9978 16.1531 63.9115 16.4751 63.9115 16.8298V20.9248H62.7355V13.9248H63.9115V14.7998C64.1588 14.4731 64.4715 14.2141 64.8495 14.0228C65.2275 13.8268 65.6382 13.7288 66.0815 13.7288C66.6042 13.7288 67.0802 13.8571 67.5095 14.1138C67.9435 14.3658 68.2865 14.7065 68.5385 15.1358C68.7952 15.5651 68.9235 16.0435 68.9235 16.5708ZM75.6537 13.9248H76.8297V21.1488C76.8297 21.6108 76.7293 22.0401 76.5287 22.4368C76.3327 22.8381 76.0667 23.1858 75.7307 23.4798C75.3947 23.7785 75.012 24.0095 74.5827 24.1728C74.1533 24.3408 73.7053 24.4248 73.2387 24.4248C72.7533 24.4248 72.2843 24.3151 71.8317 24.0958C71.379 23.8811 70.9823 23.5918 70.6417 23.2278C70.3057 22.8685 70.063 22.4648 69.9137 22.0168L70.9917 21.5268C71.0803 21.8488 71.239 22.1381 71.4677 22.3948C71.701 22.6561 71.9717 22.8615 72.2797 23.0108C72.5923 23.1648 72.912 23.2418 73.2387 23.2418C73.5467 23.2418 73.843 23.1881 74.1277 23.0808C74.417 22.9735 74.676 22.8241 74.9047 22.6328C75.138 22.4461 75.32 22.2245 75.4507 21.9678C75.586 21.7158 75.6537 21.4428 75.6537 21.1488V19.7558C75.4157 20.1571 75.1007 20.4838 74.7087 20.7358C74.3213 20.9831 73.8687 21.1068 73.3507 21.1068C72.856 21.1068 72.3917 21.0111 71.9577 20.8198C71.5237 20.6285 71.1433 20.3648 70.8167 20.0288C70.49 19.6881 70.2333 19.2961 70.0467 18.8528C69.86 18.4095 69.7667 17.9335 69.7667 17.4248C69.7667 16.9161 69.86 16.4401 70.0467 15.9968C70.2333 15.5488 70.49 15.1568 70.8167 14.8208C71.1433 14.4801 71.5237 14.2141 71.9577 14.0228C72.3917 13.8315 72.856 13.7358 73.3507 13.7358C73.8687 13.7358 74.3213 13.8595 74.7087 14.1068C75.1007 14.3541 75.4157 14.6808 75.6537 15.0868V13.9248ZM73.3577 19.9658C73.8103 19.9658 74.2023 19.8491 74.5337 19.6158C74.8697 19.3825 75.1287 19.0721 75.3107 18.6848C75.4927 18.2975 75.5837 17.8775 75.5837 17.4248C75.5837 16.9581 75.4903 16.5335 75.3037 16.1508C75.1217 15.7635 74.8627 15.4555 74.5267 15.2268C74.1953 14.9935 73.8057 14.8768 73.3577 14.8768C72.919 14.8768 72.5177 14.9911 72.1537 15.2198C71.7897 15.4485 71.5003 15.7565 71.2857 16.1438C71.0757 16.5265 70.9707 16.9535 70.9707 17.4248C70.9707 17.8961 71.078 18.3255 71.2927 18.7128C71.512 19.0955 71.8013 19.4011 72.1607 19.6298C72.5247 19.8538 72.9237 19.9658 73.3577 19.9658Z" fill="#FDCF24"/>
</svg>
