<svg width="58" height="25" viewBox="0 0 58 25" fill="none" xmlns="http://www.w3.org/2000/svg">
<rect x="0.5" y="0.407227" width="57" height="24" rx="12" fill="#9FA324"/>
<path d="M10 14.9072L13 11.9072L15 13.9072L19 9.90723" stroke="white" stroke-linecap="round" stroke-linejoin="round"/>
<path d="M15.5 9.90723H19V13.4072" stroke="white" stroke-linecap="round" stroke-linejoin="round"/>
<path d="M24.9 16.4072V15.6622C25.1567 15.4322 25.445 15.1756 25.765 14.8922C26.085 14.6056 26.4033 14.3072 26.72 13.9972C27.04 13.6839 27.3333 13.3739 27.6 13.0672C27.8667 12.7606 28.0817 12.4706 28.245 12.1972C28.4083 11.9206 28.49 11.6789 28.49 11.4722C28.49 11.2256 28.43 11.0006 28.31 10.7972C28.19 10.5906 28.0283 10.4256 27.825 10.3022C27.625 10.1789 27.4017 10.1172 27.155 10.1172C26.9083 10.1172 26.6817 10.1789 26.475 10.3022C26.2717 10.4256 26.1083 10.5906 25.985 10.7972C25.865 11.0006 25.805 11.2256 25.805 11.4722H24.965C24.965 11.0622 25.065 10.6922 25.265 10.3622C25.465 10.0289 25.73 9.76556 26.06 9.57223C26.39 9.37556 26.755 9.27723 27.155 9.27723C27.555 9.27723 27.9183 9.37556 28.245 9.57223C28.575 9.76889 28.8383 10.0339 29.035 10.3672C29.2317 10.6972 29.33 11.0656 29.33 11.4722C29.33 11.7056 29.2733 11.9572 29.16 12.2272C29.0467 12.4939 28.8917 12.7689 28.695 13.0522C28.4983 13.3356 28.275 13.6222 28.025 13.9122C27.775 14.1989 27.5117 14.4822 27.235 14.7622C26.9583 15.0422 26.6833 15.3106 26.41 15.5672H29.42V16.4072H24.9ZM32.4976 16.5372C32.0742 16.5372 31.6976 16.4422 31.3676 16.2522C31.0409 16.0589 30.7842 15.8022 30.5976 15.4822C30.4109 15.1589 30.3176 14.8006 30.3176 14.4072H31.1576C31.1576 14.6439 31.2126 14.8606 31.3226 15.0572C31.4326 15.2506 31.5876 15.4056 31.7876 15.5222C31.9876 15.6389 32.2242 15.6972 32.4976 15.6972C32.7342 15.6972 32.9542 15.6389 33.1576 15.5222C33.3642 15.4056 33.5309 15.2506 33.6576 15.0572C33.7842 14.8606 33.8476 14.6439 33.8476 14.4072C33.8476 14.1106 33.7709 13.8639 33.6176 13.6672C33.4676 13.4672 33.2576 13.3189 32.9876 13.2222C32.7209 13.1222 32.4159 13.0722 32.0726 13.0722V12.3972C32.5459 12.3972 32.9242 12.2989 33.2076 12.1022C33.4942 11.9056 33.6376 11.6156 33.6376 11.2322C33.6376 11.0289 33.5826 10.8422 33.4726 10.6722C33.3626 10.5022 33.2176 10.3672 33.0376 10.2672C32.8609 10.1639 32.6709 10.1122 32.4676 10.1122C32.2609 10.1122 32.0626 10.1639 31.8726 10.2672C31.6826 10.3672 31.5276 10.5022 31.4076 10.6722C31.2876 10.8422 31.2276 11.0289 31.2276 11.2322H30.3876C30.3876 10.9622 30.4426 10.7089 30.5526 10.4722C30.6659 10.2356 30.8192 10.0272 31.0126 9.84723C31.2092 9.66723 31.4309 9.52723 31.6776 9.42723C31.9242 9.32389 32.1842 9.27223 32.4576 9.27223C32.8142 9.27223 33.1459 9.36056 33.4526 9.53723C33.7592 9.71389 34.0059 9.95056 34.1926 10.2472C34.3826 10.5439 34.4776 10.8722 34.4776 11.2322C34.4776 11.5556 34.3959 11.8539 34.2326 12.1272C34.0692 12.4006 33.8476 12.5922 33.5676 12.7022C33.8109 12.7856 34.0159 12.9156 34.1826 13.0922C34.3492 13.2656 34.4742 13.4656 34.5576 13.6922C34.6442 13.9189 34.6876 14.1572 34.6876 14.4072C34.6876 14.7972 34.5859 15.1539 34.3826 15.4772C34.1826 15.8006 33.9159 16.0589 33.5826 16.2522C33.2526 16.4422 32.8909 16.5372 32.4976 16.5372ZM35.3883 16.9672L35.6983 15.2772H36.5383L35.9483 16.9672H35.3883ZM39.8117 16.5372C39.3784 16.5372 38.9851 16.4322 38.6317 16.2222C38.2784 16.0122 37.9984 15.7322 37.7917 15.3822C37.5884 15.0289 37.4867 14.6406 37.4867 14.2172H38.3267C38.3267 14.4872 38.3934 14.7356 38.5267 14.9622C38.6601 15.1856 38.8384 15.3639 39.0617 15.4972C39.2884 15.6306 39.5384 15.6972 39.8117 15.6972C40.0817 15.6972 40.3284 15.6306 40.5517 15.4972C40.7751 15.3639 40.9534 15.1856 41.0867 14.9622C41.2201 14.7356 41.2867 14.4872 41.2867 14.2172C41.2867 13.9472 41.2234 13.6989 41.0967 13.4722C40.9734 13.2456 40.7917 13.0656 40.5517 12.9322C40.3117 12.7956 40.0201 12.7272 39.6767 12.7272H37.9517L38.6317 9.40723H41.9517V10.2472H39.3117L38.9867 11.8872L39.7117 11.8922C40.1884 11.9022 40.6067 12.0089 40.9667 12.2122C41.3301 12.4122 41.6134 12.6856 41.8167 13.0322C42.0234 13.3756 42.1267 13.7706 42.1267 14.2172C42.1267 14.5339 42.0667 14.8339 41.9467 15.1172C41.8267 15.3972 41.6601 15.6439 41.4467 15.8572C41.2334 16.0706 40.9867 16.2372 40.7067 16.3572C40.4301 16.4772 40.1317 16.5372 39.8117 16.5372ZM43.5727 16.4072L47.6127 9.40723H48.5827L44.5427 16.4072H43.5727ZM44.4027 12.2222C44.166 12.2222 43.951 12.1656 43.7577 12.0522C43.5677 11.9389 43.4143 11.7856 43.2977 11.5922C43.181 11.3989 43.1227 11.1839 43.1227 10.9472C43.1227 10.7039 43.181 10.4872 43.2977 10.2972C43.4143 10.1039 43.5693 9.95056 43.7627 9.83723C43.956 9.72389 44.1693 9.66723 44.4027 9.66723C44.636 9.66723 44.8493 9.72556 45.0427 9.84223C45.236 9.95556 45.3893 10.1089 45.5027 10.3022C45.6193 10.4922 45.6777 10.7072 45.6777 10.9472C45.6777 11.1872 45.6193 11.4039 45.5027 11.5972C45.386 11.7872 45.231 11.9389 45.0377 12.0522C44.8443 12.1656 44.6327 12.2222 44.4027 12.2222ZM44.4027 11.6072C44.586 11.6072 44.741 11.5439 44.8677 11.4172C44.9977 11.2872 45.0627 11.1306 45.0627 10.9472C45.0627 10.7606 44.9977 10.6039 44.8677 10.4772C44.741 10.3472 44.586 10.2822 44.4027 10.2822C44.2193 10.2822 44.0627 10.3472 43.9327 10.4772C43.8027 10.6039 43.7377 10.7606 43.7377 10.9472C43.7377 11.1306 43.8027 11.2872 43.9327 11.4172C44.0627 11.5439 44.2193 11.6072 44.4027 11.6072ZM47.7577 16.1522C47.5243 16.1522 47.3093 16.0939 47.1127 15.9772C46.9193 15.8572 46.7643 15.7006 46.6477 15.5072C46.5343 15.3106 46.4777 15.0989 46.4777 14.8722C46.4777 14.6322 46.536 14.4156 46.6527 14.2222C46.7727 14.0289 46.9293 13.8756 47.1227 13.7622C47.316 13.6489 47.5277 13.5922 47.7577 13.5922C47.9977 13.5922 48.2143 13.6522 48.4077 13.7722C48.601 13.8889 48.7543 14.0439 48.8677 14.2372C48.981 14.4306 49.0377 14.6422 49.0377 14.8722C49.0377 15.1089 48.9793 15.3239 48.8627 15.5172C48.7493 15.7106 48.596 15.8656 48.4027 15.9822C48.2093 16.0956 47.9943 16.1522 47.7577 16.1522ZM47.7577 15.5372C47.941 15.5372 48.0977 15.4722 48.2277 15.3422C48.3577 15.2122 48.4227 15.0556 48.4227 14.8722C48.4227 14.6889 48.3577 14.5322 48.2277 14.4022C48.0977 14.2722 47.941 14.2072 47.7577 14.2072C47.5743 14.2072 47.4177 14.2722 47.2877 14.4022C47.1577 14.5322 47.0927 14.6889 47.0927 14.8722C47.0927 15.0556 47.1577 15.2122 47.2877 15.3422C47.4177 15.4722 47.5743 15.5372 47.7577 15.5372Z" fill="white"/>
</svg>
